<svg width="22" height="16" viewBox="0 0 22 16" fill="none" xmlns="http://www.w3.org/2000/svg">
<path d="M8 11L5.032 13.968C4.70167 14.2982 4.28084 14.5231 3.8227 14.6142C3.36457 14.7054 2.88971 14.6586 2.45815 14.4798C2.0266 14.3011 1.65773 13.9984 1.39819 13.61C1.13864 13.2217 1.00007 12.7651 1 12.298V11L2.357 4.21598C2.53824 3.30921 3.02806 2.49324 3.74312 1.9069C4.45817 1.32056 5.35429 1.00008 6.279 0.999985H15.721C16.6457 1.00008 17.5418 1.32056 18.2569 1.9069C18.9719 2.49324 19.4618 3.30921 19.643 4.21598L21 11V12.297C20.9999 12.7641 20.8614 13.2207 20.6018 13.609C20.3423 13.9974 19.9734 14.3001 19.5418 14.4788C19.1103 14.6576 18.6354 14.7044 18.1773 14.6132C17.7192 14.5221 17.2983 14.2972 16.968 13.967L14 11H8Z" stroke="white" stroke-width="2" stroke-linecap="round" stroke-linejoin="round"/>
</svg>
