<svg width="22" height="22" viewBox="0 0 22 22" fill="none" xmlns="http://www.w3.org/2000/svg">
<path d="M5 2V5H2V2H5ZM6.5 20V17C6.5 16.6022 6.34196 16.2206 6.06066 15.9393C5.77936 15.658 5.39782 15.5 5 15.5H2C1.60218 15.5 1.22064 15.658 0.93934 15.9393C0.658035 16.2206 0.5 16.6022 0.5 17V20C0.5 20.3978 0.658035 20.7794 0.93934 21.0607C1.22064 21.342 1.60218 21.5 2 21.5H5C5.39782 21.5 5.77936 21.342 6.06066 21.0607C6.34196 20.7794 6.5 20.3978 6.5 20ZM6.5 12.5V9.5C6.5 9.10218 6.34196 8.72064 6.06066 8.43934C5.77936 8.15804 5.39782 8 5 8H2C1.60218 8 1.22064 8.15804 0.93934 8.43934C0.658035 8.72064 0.5 9.10218 0.5 9.5V12.5C0.5 12.8978 0.658035 13.2794 0.93934 13.5607C1.22064 13.842 1.60218 14 2 14H5C5.39782 14 5.77936 13.842 6.06066 13.5607C6.34196 13.2794 6.5 12.8978 6.5 12.5ZM6.5 5V2C6.5 1.60218 6.34196 1.22064 6.06066 0.93934C5.77936 0.658035 5.39782 0.5 5 0.5H2C1.60218 0.5 1.22064 0.658035 0.93934 0.93934C0.658035 1.22064 0.5 1.60218 0.5 2V5C0.5 5.39782 0.658035 5.77936 0.93934 6.06066C1.22064 6.34196 1.60218 6.5 2 6.5H5C5.39782 6.5 5.77936 6.34196 6.06066 6.06066C6.34196 5.77936 6.5 5.39782 6.5 5ZM14 20V17C14 16.6022 13.842 16.2206 13.5607 15.9393C13.2794 15.658 12.8978 15.5 12.5 15.5H9.5C9.10218 15.5 8.72064 15.658 8.43934 15.9393C8.15804 16.2206 8 16.6022 8 17V20C8 20.3978 8.15804 20.7794 8.43934 21.0607C8.72064 21.342 9.10218 21.5 9.5 21.5H12.5C12.8978 21.5 13.2794 21.342 13.5607 21.0607C13.842 20.7794 14 20.3978 14 20ZM14 12.5V9.5C14 9.10218 13.842 8.72064 13.5607 8.43934C13.2794 8.15804 12.8978 8 12.5 8H9.5C9.10218 8 8.72064 8.15804 8.43934 8.43934C8.15804 8.72064 8 9.10218 8 9.5V12.5C8 12.8978 8.15804 13.2794 8.43934 13.5607C8.72064 13.842 9.10218 14 9.5 14H12.5C12.8978 14 13.2794 13.842 13.5607 13.5607C13.842 13.2794 14 12.8978 14 12.5ZM14 5V2C14 1.60218 13.842 1.22064 13.5607 0.93934C13.2794 0.658035 12.8978 0.5 12.5 0.5H9.5C9.10218 0.5 8.72064 0.658035 8.43934 0.93934C8.15804 1.22064 8 1.60218 8 2V5C8 5.39782 8.15804 5.77936 8.43934 6.06066C8.72064 6.34196 9.10218 6.5 9.5 6.5H12.5C12.8978 6.5 13.2794 6.34196 13.5607 6.06066C13.842 5.77936 14 5.39782 14 5ZM12.5 2V5H9.5V2H12.5ZM20 2V5H17V2H20ZM5 9.5V12.5H2V9.5H5ZM12.5 9.5V12.5H9.5V9.5H12.5ZM20 9.5H17V12.5H20V9.5ZM5 17V20H2V17H5ZM12.5 17V20H9.5V17H12.5ZM20 17V20H17V17H20ZM17 0.5C16.6022 0.5 16.2206 0.658035 15.9393 0.93934C15.658 1.22064 15.5 1.60218 15.5 2V5C15.5 5.39782 15.658 5.77936 15.9393 6.06066C16.2206 6.34196 16.6022 6.5 17 6.5H20C20.3978 6.5 20.7794 6.34196 21.0607 6.06066C21.342 5.77936 21.5 5.39782 21.5 5V2C21.5 1.60218 21.342 1.22064 21.0607 0.93934C20.7794 0.658035 20.3978 0.5 20 0.5H17ZM15.5 9.5C15.5 9.10218 15.658 8.72064 15.9393 8.43934C16.2206 8.15804 16.6022 8 17 8H20C20.3978 8 20.7794 8.15804 21.0607 8.43934C21.342 8.72064 21.5 9.10218 21.5 9.5V12.5C21.5 12.8978 21.342 13.2794 21.0607 13.5607C20.7794 13.842 20.3978 14 20 14H17C16.6022 14 16.2206 13.842 15.9393 13.5607C15.658 13.2794 15.5 12.8978 15.5 12.5V9.5ZM17 15.5C16.6022 15.5 16.2206 15.658 15.9393 15.9393C15.658 16.2206 15.5 16.6022 15.5 17V20C15.5 20.3978 15.658 20.7794 15.9393 21.0607C16.2206 21.342 16.6022 21.5 17 21.5H20C20.3978 21.5 20.7794 21.342 21.0607 21.0607C21.342 20.7794 21.5 20.3978 21.5 20V17C21.5 16.6022 21.342 16.2206 21.0607 15.9393C20.7794 15.658 20.3978 15.5 20 15.5H17Z" fill="#F28E13"/>
</svg>
