<svg width="21" height="20" viewBox="0 0 21 20" fill="none" xmlns="http://www.w3.org/2000/svg">
<path d="M4.248 14.002C5.214 14.002 5.998 14.786 5.998 15.752V18.25C5.998 18.7141 5.81363 19.1592 5.48544 19.4874C5.15725 19.8156 4.71213 20 4.248 20H1.75C1.28587 20 0.840752 19.8156 0.512563 19.4874C0.184375 19.1592 0 18.7141 0 18.25V15.752C0 14.786 0.784 14.002 1.75 14.002H4.248ZM4.248 15.502H1.75C1.6837 15.502 1.62011 15.5283 1.57322 15.5752C1.52634 15.6221 1.5 15.6857 1.5 15.752V18.25C1.5 18.388 1.612 18.5 1.75 18.5H4.248C4.3143 18.5 4.37789 18.4737 4.42478 18.4268C4.47166 18.3799 4.498 18.3163 4.498 18.25V15.752C4.498 15.6857 4.47166 15.6221 4.42478 15.5752C4.37789 15.5283 4.3143 15.502 4.248 15.502ZM7.748 16H19.253C19.443 16.0001 19.6259 16.0722 19.7648 16.202C19.9036 16.3317 19.9881 16.5093 20.001 16.6989C20.014 16.8885 19.9545 17.0759 19.8346 17.2233C19.7147 17.3707 19.5432 17.4671 19.355 17.493L19.253 17.5H7.748C7.55798 17.4999 7.37506 17.4278 7.23621 17.298C7.09736 17.1683 7.01293 16.9907 6.99997 16.8011C6.98702 16.6115 7.04651 16.4241 7.16643 16.2767C7.28635 16.1293 7.45775 16.0329 7.646 16.007L7.748 16H19.253H7.748ZM4.248 7.001C5.214 7.001 5.998 7.785 5.998 8.751V11.249C5.998 11.7131 5.81363 12.1582 5.48544 12.4864C5.15725 12.8146 4.71213 12.999 4.248 12.999H1.75C1.28587 12.999 0.840752 12.8146 0.512563 12.4864C0.184375 12.1582 0 11.7131 0 11.249V8.75C0 7.784 0.784 7 1.75 7H4.248V7.001ZM4.248 8.501H1.75C1.6837 8.501 1.62011 8.52734 1.57322 8.57422C1.52634 8.62111 1.5 8.6847 1.5 8.751V11.249C1.5 11.387 1.612 11.499 1.75 11.499H4.248C4.3143 11.499 4.37789 11.4727 4.42478 11.4258C4.47166 11.3789 4.498 11.3153 4.498 11.249V8.75C4.498 8.6837 4.47166 8.62011 4.42478 8.57322C4.37789 8.52634 4.3143 8.5 4.248 8.5V8.501ZM7.748 9H19.253C19.443 9.00006 19.6259 9.07224 19.7648 9.20197C19.9036 9.3317 19.9881 9.5093 20.001 9.69888C20.014 9.88846 19.9545 10.0759 19.8346 10.2233C19.7147 10.3707 19.5432 10.4671 19.355 10.493L19.253 10.5H7.748C7.55798 10.4999 7.37506 10.4278 7.23621 10.298C7.09736 10.1683 7.01293 9.9907 6.99997 9.80112C6.98702 9.61154 7.04651 9.42411 7.16643 9.2767C7.28635 9.12929 7.45775 9.0329 7.646 9.007L7.748 9H19.253H7.748ZM4.248 0C5.214 0 5.998 0.784 5.998 1.75V4.248C5.998 4.71213 5.81363 5.15725 5.48544 5.48544C5.15725 5.81363 4.71213 5.998 4.248 5.998H1.75C1.28587 5.998 0.840752 5.81363 0.512563 5.48544C0.184375 5.15725 0 4.71213 0 4.248V1.75C0 0.784 0.784 0 1.75 0H4.248ZM4.248 1.5H1.75C1.6837 1.5 1.62011 1.52634 1.57322 1.57322C1.52634 1.62011 1.5 1.6837 1.5 1.75V4.248C1.5 4.386 1.612 4.498 1.75 4.498H4.248C4.3143 4.498 4.37789 4.47166 4.42478 4.42478C4.47166 4.37789 4.498 4.3143 4.498 4.248V1.75C4.498 1.6837 4.47166 1.62011 4.42478 1.57322C4.37789 1.52634 4.3143 1.5 4.248 1.5ZM7.748 2H19.253C19.443 2.00006 19.6259 2.07224 19.7648 2.20197C19.9036 2.3317 19.9881 2.5093 20.001 2.69888C20.014 2.88846 19.9545 3.07589 19.8346 3.2233C19.7147 3.37071 19.5432 3.4671 19.355 3.493L19.253 3.5H7.748C7.55798 3.49994 7.37506 3.42776 7.23621 3.29803C7.09736 3.1683 7.01293 2.9907 6.99997 2.80112C6.98702 2.61154 7.04651 2.42411 7.16643 2.2767C7.28635 2.12929 7.45775 2.0329 7.646 2.007L7.748 2H19.253H7.748Z" fill="#F28E13"/>
</svg>
